# xmcd
# 
# Track frame offsets:
#     150
#     11717
#     25580
#     37050
#     50897
#     62795
#     77840
#     88665
#     102495
#     120540
#     138705
# 
# Disc length: 1977
# 
# Revision: 4
# Processed by: cddbd v1.5.2PL0 Copyright (c) Steve Scherf et al.
# Submitted via: fre:ac v1.0.17
# 
DISCID=9907b70b
DTITLE=Waylon and Willie - Waylon and Willie
DYEAR=1978
DGENRE=Country
TTITLE0=Mammas Don't Let Your Babies Grow Up To Be Cowboys
TTITLE1=The Year 2003 Minus 25
TTITLE2=Pick Up The Tempo
TTITLE3=If You Can Touch Her At All
TTITLE4=Lookin' For A Feeling  
TTITLE5=It's Not Supposed To Be That Way 
TTITLE6=I Can Get Off On You  
TTITLE7=Don't Cuss The Fiddle  
TTITLE8=Gold Dust Woman  
TTITLE9=A Couple More Years  
TTITLE10=The Wurlitzer Prize (I Don't Want To Get Over You)  
EXTD=Waylon Jennings and Willie Nelson
EXTT0=
EXTT1=
EXTT2=
EXTT3=
EXTT4=
EXTT5=
EXTT6=
EXTT7=
EXTT8=
EXTT9=
EXTT10=
PLAYORDER=
